<svg width="40" height="40" viewBox="0 0 40 40" fill="none" xmlns="http://www.w3.org/2000/svg">
<rect width="40" height="40" rx="20" fill="white"/>
<g clip-path="url(#clip0_610_19671)">
<path fill-rule="evenodd" clip-rule="evenodd" d="M20.3358 12.8086C20.8556 12.8086 21.277 13.23 21.277 13.7498V26.9262C21.277 27.446 20.8556 27.8674 20.3358 27.8674C19.816 27.8674 19.3946 27.446 19.3946 26.9262V13.7498C19.3946 13.23 19.816 12.8086 20.3358 12.8086Z" fill="black"/>
<path fill-rule="evenodd" clip-rule="evenodd" d="M27.5896 19.6725C27.9571 20.04 27.9571 20.636 27.5896 21.0035L21.0013 27.5918C20.6338 27.9593 20.0379 27.9593 19.6703 27.5918L13.0821 21.0035C12.7145 20.636 12.7145 20.04 13.0821 19.6725C13.4496 19.3049 14.0455 19.3049 14.4131 19.6725L20.3358 25.5952L26.2585 19.6725C26.6261 19.3049 27.222 19.3049 27.5896 19.6725Z" fill="black"/>
</g>
<defs>
<clipPath id="clip0_610_19671">
<rect x="12" y="12" width="16" height="16" rx="8" fill="white"/>
</clipPath>
</defs>
</svg>
