<svg width="18" height="11" viewBox="0 0 18 11" fill="none" xmlns="http://www.w3.org/2000/svg">
<path fill-rule="evenodd" clip-rule="evenodd" d="M15.4916 6.47695C16.0886 7.0599 16.7188 7.60836 17.2544 8.2501C17.4909 8.53527 17.7149 8.82956 17.8862 9.16051C18.129 9.63097 17.9091 10.1487 17.4873 10.1768L14.865 10.1756C14.1886 10.2317 13.6491 9.95944 13.1954 9.49702C12.8324 9.12721 12.4962 8.73363 12.1471 8.35135C12.0039 8.1951 11.8541 8.04807 11.6752 7.93186C11.3172 7.6995 11.0065 7.77065 10.8019 8.144C10.5935 8.52374 10.5463 8.94423 10.5258 9.36744C10.4977 9.98493 10.3111 10.1473 9.69083 10.1755C8.36525 10.238 7.10722 10.0375 5.93854 9.3688C4.9082 8.77929 4.10921 7.94706 3.41377 7.0049C2.05975 5.1703 1.02284 3.15438 0.0909061 1.08198C-0.118865 0.615061 0.0345452 0.364424 0.549718 0.355553C1.40519 0.338934 2.26053 0.340117 3.11701 0.35437C3.46469 0.359456 3.69487 0.558877 3.82912 0.887344C4.29195 2.02538 4.85828 3.10813 5.56915 4.11174C5.75846 4.37894 5.95149 4.64614 6.22638 4.8342C6.53048 5.04244 6.76201 4.97342 6.90507 4.63466C6.99586 4.41986 7.0356 4.18851 7.05606 3.95845C7.12384 3.16697 7.13277 2.37686 7.01389 1.58816C6.94091 1.09593 6.66366 0.777283 6.1725 0.684137C5.92186 0.636647 5.95918 0.543383 6.08054 0.400322C6.29131 0.153588 6.48955 0 6.88473 0H9.84832C10.3149 0.0920817 10.4185 0.301676 10.4824 0.771133L10.4849 4.06307C10.4798 4.24481 10.5757 4.78411 10.903 4.9044C11.165 4.99004 11.3377 4.78044 11.4949 4.61432C12.2045 3.86122 12.7109 2.97122 13.1633 2.04963C13.3641 1.6444 13.5367 1.22356 13.704 0.803069C13.828 0.491044 14.0225 0.337515 14.374 0.344316L17.2263 0.346859C17.3108 0.346859 17.3964 0.348101 17.4783 0.362117C17.959 0.444027 18.0907 0.650782 17.9422 1.12012C17.7083 1.85648 17.2532 2.47012 16.8083 3.0866C16.3326 3.74478 15.8239 4.38042 15.3522 5.0425C14.9188 5.64709 14.9532 5.95184 15.4916 6.47695Z" fill="white"/>
</svg>
